<svg xmlns="http://www.w3.org/2000/svg" width="40.791" height="40.791" viewBox="0 0 40.791 40.791"><g transform="translate(0 0)"><rect width="40.791" height="40.791" fill="none"/><path d="M38.383,40.789a2.421,2.421,0,0,1-1.744-.746L25.481,28.879l-.01.008a15.654,15.654,0,0,1-9.384,3.094h-.061A16.054,16.054,0,0,1,4.631,4.647,15.955,15.955,0,0,1,15.841,0h.069A16.12,16.12,0,0,1,31.934,16.049a15.693,15.693,0,0,1-3.06,9.417L40.043,36.636a2.408,2.408,0,0,1-1.66,4.153ZM15.861,3.2A12.674,12.674,0,0,0,3.194,15.944a12.939,12.939,0,0,0,12.82,12.839h.049A12.678,12.678,0,0,0,28.741,16.035,12.935,12.935,0,0,0,15.92,3.2Z" transform="translate(0 0)" fill="#0040ff"/></g></svg>